# xmcd
#
# Track frame offsets:
#	150
#	32023
#	65421
#	102817
#	116458
#	145657
#	182466
#	221773
#	261685
#
# Disc length: 3809 seconds
#
# Revision: 1
# Processed by: cddbd v1.5.2PL0 Copyright (c) Steve Scherf et al.
# Submitted via: audiograbber 1.83.01
#
DISCID=800edf09
DTITLE=Grateful Dead - 82-08-28 Oregon Country Fair Site, Veneta OR
DYEAR=1900
DGENRE=
TTITLE0=Bertha
TTITLE1=Minglewood Blues
TTITLE2=Tennessee Jed
TTITLE3=Me and My Uncle
TTITLE4=Big River
TTITLE5=Althea
TTITLE6=It's All Over Now
TTITLE7=China Cat Sunflower
TTITLE8=I Know You Rider
EXTD=
EXTT0=
EXTT1=
EXTT2=
EXTT3=
EXTT4=
EXTT5=
EXTT6=
EXTT7=
EXTT8=
PLAYORDER=
